<?xml version="1.0" encoding="UTF-8"?>
<svg width="90px" height="90px" viewBox="0 0 90 90" version="1.1" xmlns="http://www.w3.org/2000/svg" xmlns:xlink="http://www.w3.org/1999/xlink">
    <title>iconfinder_4373200_line_logo_logos_icon</title>
    <g id="Page-1" stroke="none" stroke-width="1" fill="none" fill-rule="evenodd">
        <g id="Desktop-01" transform="translate(-1524.000000, -672.000000)" fill-rule="nonzero">
            <g id="iconfinder_4373200_line_logo_logos_icon" transform="translate(1524.000000, 672.000000)">
                <path d="M90,16.4130321 L90,73.7276957 C89.9799124,82.7277285 82.6072494,90.0198006 73.5871712,90 L16.2725092,90 C7.2722721,89.9799141 -0.020004299,82.5872053 0,73.5869679 L0,16.2723043 C0.0202913014,7.27247601 7.41299988,-0.0198005895 16.4130325,0 L73.727899,0 C82.7275225,0.0202904658 90.020208,7.39295372 90,16.4130321 Z" id="Path" fill="#00C100"></path>
                <path d="M77.6253222,41.0422356 C77.6253222,26.3772957 62.9194735,14.4442749 44.8594763,14.4442749 C26.7990701,14.4442749 12.0936305,26.3772957 12.0936305,41.0422356 C12.0936305,54.1804426 23.7456045,65.1897327 39.4952524,67.2791722 C43.332539,68.1024706 42.8905147,69.5091349 42.0267161,74.6716764 C41.8859883,75.495384 41.3637819,77.90637 44.8592718,76.4401829 C48.3547617,74.9733821 63.7231355,65.3306651 70.6136832,57.4153407 C75.3548595,52.1916399 77.6253222,46.9086206 77.6253222,41.0422356 Z" id="Path" fill="#FEFEFE"></path>
                <g id="Group" transform="translate(22.841510, 33.950823)" fill="#39AE41">
                    <path d="M31.1585219,0.0202500739 L28.8688318,0.0202500739 C28.5065805,0.0202500739 28.225534,0.3015011 28.225534,0.663138783 L28.225534,9.14076062 L21.6763739,0.3015011 C21.5757372,0.120682258 21.3550318,0.0202500739 21.1541675,0.0202500739 L18.8841138,0.0202500739 C18.5224761,0.0202500739 18.2412251,0.3015011 18.2412251,0.663138783 L18.2412251,14.9468045 C18.2412251,15.3082377 18.5224761,15.5898978 18.8841138,15.5898978 L21.1740085,15.5898978 C21.5358507,15.5898978 21.8168972,15.3082377 21.8168972,14.9468045 L21.8168972,6.46897814 L28.3660572,15.3082377 C28.4668985,15.4489654 28.6679674,15.5692386 28.8886728,15.5692386 L31.178772,15.5692386 C31.5404096,15.5692386 31.8216606,15.2879876 31.8216606,14.9261454 L31.8216606,0.643093255 C31.8214561,0.3015011 31.5203641,-2.11324014e-14 31.1585219,0.0202500739 Z" id="Path"></path>
                    <path d="M15.3481237,0 L13.0582291,0 C12.6963869,0 12.4153404,0.281251026 12.4153404,0.643093255 L12.4153404,14.9261454 C12.4153404,15.2879876 12.6965914,15.5692386 13.0582291,15.5692386 L15.3481237,15.5692386 C15.709966,15.5692386 15.9910124,15.2879876 15.9910124,14.9261454 L15.9910124,0.643093255 C15.9910124,0.3015011 15.709966,0 15.3481237,0 Z" id="Path"></path>
                    <path d="M9.82374011,11.9737255 L3.57608113,11.9737255 L3.57608113,0.643093255 C3.57608113,0.281251026 3.29483011,0 2.93298789,0 L0.642888691,0 C0.281046472,0 0,0.281251026 0,0.643093255 L0,14.9261454 C0,15.1073733 0.0603411275,15.2478965 0.18061429,15.3679652 C0.301296545,15.4688064 0.441819781,15.5493976 0.622638618,15.5493976 L9.80389913,15.5493976 C10.1653323,15.5493976 10.4465833,15.2681466 10.4465833,14.9063044 L10.4465833,12.6160006 C10.4465833,12.2744084 10.1651277,11.9737255 9.82374011,11.9737255 Z" id="Path"></path>
                    <path d="M43.8749543,3.57587668 C44.237001,3.57587668 44.517843,3.2948302 44.517843,2.93319252 L44.517843,0.643093255 C44.4977974,0.3015011 44.216751,0 43.8749543,0 L34.6941029,0 C34.3527153,0 34.0514187,0.281251026 34.0514187,0.643093255 L34.0514187,14.9261454 C34.0514187,15.2681466 34.3324652,15.5692386 34.6941029,15.5692386 L43.8749543,15.5692386 C44.237001,15.5692386 44.517843,15.2879876 44.517843,14.9261454 L44.517843,12.6364552 C44.517843,12.2744084 44.237001,11.9933619 43.8749543,11.9933619 L37.6274998,11.9933619 L37.6274998,9.58258041 L43.8749543,9.58258041 C44.237001,9.58258041 44.517843,9.30132938 44.517843,8.9396917 L44.517843,6.62934236 C44.517843,6.26790923 44.237001,5.98645366 43.8749543,5.98645366 L37.6274998,5.98645366 L37.6274998,3.57567213 L43.8749543,3.57567213 L43.8749543,3.57587668 Z" id="Path"></path>
                </g>
            </g>
        </g>
    </g>
</svg>