<?xml version="1.0" encoding="UTF-8"?>
<svg width="90px" height="90px" viewBox="0 0 90 90" version="1.1" xmlns="http://www.w3.org/2000/svg" xmlns:xlink="http://www.w3.org/1999/xlink">
    <title>Group 4</title>
    <g id="Page-1" stroke="none" stroke-width="1" fill="none" fill-rule="evenodd">
        <g id="Desktop-01" transform="translate(-1313.000000, -673.000000)">
            <g id="Group-4" transform="translate(1313.000000, 673.000000)">
                <rect id="Rectangle" fill="#FFFFFF" x="0" y="0" width="90" height="90" rx="18.2022472"></rect>
                <g id="iconfinder_5296507_chat_slack_slack-logo_icon" transform="translate(13.146067, 13.146067)" fill-rule="nonzero">
                    <g id="Group" transform="translate(0.000000, 34.098750)" fill="#E01E5A">
                        <path d="M13.5973315,6.79866573 C13.5973315,10.540618 10.540618,13.5973315 6.79866573,13.5973315 C3.05683989,13.5973315 0,10.540618 0,6.79866573 C0,3.05683989 3.05683989,0 6.79866573,0 L13.5973315,0 L13.5973315,6.79866573 Z" id="Path"></path>
                        <path d="M17.0230197,6.79866573 C17.0230197,3.05683989 20.0798596,0 23.8216854,0 C27.5636376,0 30.6203511,3.05683989 30.6203511,6.79866573 L30.6203511,23.8216854 C30.6203511,27.5636376 27.5636376,30.6203511 23.8216854,30.6203511 C20.0798596,30.6203511 17.0230197,27.5636376 17.0230197,23.8216854 L17.0230197,6.79866573 L17.0230197,6.79866573 Z" id="Path"></path>
                    </g>
                    <g id="Group" fill="#36C5F0">
                        <path d="M23.8216854,13.5973315 C20.0798596,13.5973315 17.0230197,10.540618 17.0230197,6.79866573 C17.0230197,3.05683989 20.0798596,0 23.8216854,0 C27.5636376,0 30.6203511,3.05683989 30.6203511,6.79866573 L30.6203511,13.5973315 L23.8216854,13.5973315 Z" id="Path"></path>
                        <path d="M23.8216854,17.0230197 C27.5636376,17.0230197 30.6203511,20.0798596 30.6203511,23.8216854 C30.6203511,27.5636376 27.5636376,30.6203511 23.8216854,30.6203511 L6.79866573,30.6203511 C3.05683989,30.6203511 0,27.5636376 0,23.8216854 C0,20.0798596 3.05683989,17.0230197 6.79866573,17.0230197 L23.8216854,17.0230197 Z" id="Path"></path>
                    </g>
                    <g id="Group" transform="translate(34.098750, 0.000000)" fill="#2EB67D">
                        <path d="M17.0230197,23.8216854 C17.0230197,20.0798596 20.0798596,17.0230197 23.8216854,17.0230197 C27.5636376,17.0230197 30.6203511,20.0798596 30.6203511,23.8216854 C30.6203511,27.5636376 27.5636376,30.6203511 23.8216854,30.6203511 L17.0230197,30.6203511 L17.0230197,23.8216854 L17.0230197,23.8216854 Z" id="Path"></path>
                        <path d="M13.5973315,23.8216854 C13.5973315,27.5636376 10.540618,30.6203511 6.79866573,30.6203511 C3.05683989,30.6203511 0,27.5636376 0,23.8216854 L0,6.79866573 C0,3.05683989 3.05683989,0 6.79866573,0 C10.540618,0 13.5973315,3.05683989 13.5973315,6.79866573 L13.5973315,23.8216854 L13.5973315,23.8216854 Z" id="Path"></path>
                    </g>
                    <g id="Group" transform="translate(34.098750, 34.098750)" fill="#ECB22E">
                        <path d="M6.79866573,17.0230197 C10.540618,17.0230197 13.5973315,20.0798596 13.5973315,23.8216854 C13.5973315,27.5636376 10.540618,30.6203511 6.79866573,30.6203511 C3.05683989,30.6203511 0,27.5636376 0,23.8216854 L0,17.0230197 L6.79866573,17.0230197 L6.79866573,17.0230197 Z" id="Path"></path>
                        <path d="M6.79866573,13.5973315 C3.05683989,13.5973315 0,10.540618 0,6.79866573 C0,3.05683989 3.05683989,0 6.79866573,0 L23.8216854,0 C27.5636376,0 30.6203511,3.05683989 30.6203511,6.79866573 C30.6203511,10.540618 27.5636376,13.5973315 23.8216854,13.5973315 L6.79866573,13.5973315 L6.79866573,13.5973315 Z" id="Path"></path>
                    </g>
                </g>
            </g>
        </g>
    </g>
</svg>