<?xml version="1.0" encoding="UTF-8"?>
<svg width="90px" height="90px" viewBox="0 0 90 90" version="1.1" xmlns="http://www.w3.org/2000/svg" xmlns:xlink="http://www.w3.org/1999/xlink">
    <title>Group 6</title>
    <g id="Page-1" stroke="none" stroke-width="1" fill="none" fill-rule="evenodd">
        <g id="Desktop-01" transform="translate(-1743.000000, -673.000000)">
            <g id="Group-6" transform="translate(1743.000000, 673.000000)">
                <g id="Group-5" fill="#FFFFFF">
                    <rect id="Rectangle" x="0" y="0" width="90" height="90" rx="18.2022472"></rect>
                </g>
                <g id="iconfinder_4202041_video_youtube_logo_social_social-media_icon" transform="translate(10.000000, 21.000000)" fill-rule="nonzero">
                    <path d="M67.0250374,4.62535984 C65.1264653,1.2564345 63.0650704,0.637482559 58.8701106,0.401545434 C54.6783779,0.117749697 44.1389044,0 35.0090946,0 C25.8606556,0 15.3167814,0.117749697 11.1294493,0.396730391 C6.94329074,0.637482559 4.87778863,1.25234901 2.96220081,4.62535984 C1.00598065,7.99005377 0,13.7850314 0,23.9870869 L0,24.0222513 C0,34.1798042 1.00598065,40.0182631 2.96220081,43.3476467 C4.87778863,46.7168639 6.93845006,47.3276449 11.1259288,47.610857 C15.3167814,47.8556946 25.8606556,48 35.0090946,48 C44.1389044,48 54.6783779,47.8556946 58.8740712,47.615672 C63.0699111,47.3326058 65.1296924,46.7208035 67.028998,43.3524618 C69.0017938,40.0227863 70,34.1846192 70,24.0258991 L70,23.9910265 C70,13.7850314 69.0019405,7.99005377 67.0250374,4.62535984 L67.0250374,4.62535984 Z" id="Path" fill="#F84437"></path>
                    <polygon id="Path" fill="#FCFCFC" points="26.2504034 37.0910086 26.2504034 10.9091373 48.124835 23.999927"></polygon>
                </g>
            </g>
        </g>
    </g>
</svg>