<?xml version="1.0" encoding="UTF-8"?>
<svg width="90px" height="90px" viewBox="0 0 90 90" version="1.1" xmlns="http://www.w3.org/2000/svg" xmlns:xlink="http://www.w3.org/1999/xlink">
    <title>iconfinder_4375089_logo_spotify_icon</title>
    <g id="Page-1" stroke="none" stroke-width="1" fill="none" fill-rule="evenodd">
        <g id="Desktop-01" transform="translate(-1630.000000, -673.000000)" fill-rule="nonzero">
            <g id="iconfinder_4375089_logo_spotify_icon" transform="translate(1630.000000, 673.000000)">
                <path d="M45.0000978,0 C20.1590656,0 0,20.1591094 0,45 C0,69.840695 20.1590656,90 45.0000978,90 C69.8405431,90 90,69.840695 90,45 C90,20.1591094 69.8407388,0 45.0000978,0 Z" id="Path" fill="#1ED760"></path>
                <path d="M63.2722897,66.2119183 C62.5100272,66.2119183 62.0385044,65.9759608 61.3306333,65.5584372 C50.0082174,58.7362119 36.8349279,58.4454715 23.824617,61.1126135 C23.1169416,61.2941795 22.1915048,61.5847243 21.6653949,61.5847243 C19.9053041,61.5847243 18.7984974,60.1871747 18.7984974,58.7174292 C18.7984974,56.8487472 19.9054998,55.9596998 21.2664593,55.6693507 C36.1270568,52.3851191 51.3145898,52.6750768 64.2703136,60.4233279 C65.3771204,61.1312006 66.0304044,61.7662903 66.0304044,63.4172105 C66.0304044,65.068522 64.7418364,66.2119183 63.2722897,66.2119183 L63.2722897,66.2119183 Z" id="Path" fill="#191515"></path>
                <path d="M68.1534308,54.3083883 C67.2096026,54.3083883 66.5751013,53.8910604 65.9214259,53.5463198 C54.5806187,46.8326819 37.6693862,44.1289527 22.6272231,48.2118401 C21.7561777,48.4474063 21.2844593,48.6829725 20.468001,48.6829725 C18.5265403,48.6829725 16.9478195,47.1046396 16.9478195,45.1633703 C16.9478195,43.221514 17.8912563,41.9335301 19.7603256,41.4072235 C24.8048365,39.9918695 29.9579347,38.9396476 37.5066033,38.9396476 C49.2823463,38.9396476 60.6595449,41.8609429 69.6231731,47.1952269 C71.0929154,48.0662742 71.6736123,49.1910834 71.6736123,50.7700033 C71.655221,52.7300553 70.1308916,54.3083883 68.1534308,54.3083883 Z" id="Path" fill="#191515"></path>
                <path d="M73.7780517,40.4817847 C72.8346149,40.4817847 72.2541136,40.2460228 71.4376553,39.7743034 C58.5183229,32.0626394 35.4193813,30.2117618 20.4678054,34.3852365 C19.814717,34.5666068 18.998063,34.8567602 18.126822,34.8567602 C15.7318385,34.8567602 13.8991607,32.9876869 13.8991607,30.5745025 C13.8991607,28.1069266 15.4236857,26.7095727 17.0566023,26.2378532 C23.4436814,24.3687799 30.5926317,23.4797325 38.3770617,23.4797325 C51.6233296,23.4797325 65.5039033,26.2378532 75.6473166,32.1532268 C77.0626675,32.9696868 77.9879087,34.0944961 77.9879087,36.2541141 C77.9879087,38.7218857 75.9920565,40.4817847 73.7780517,40.4817847 L73.7780517,40.4817847 Z" id="Path" fill="#191515"></path>
            </g>
        </g>
    </g>
</svg>