<?xml version="1.0" encoding="UTF-8"?>
<svg width="90px" height="90px" viewBox="0 0 90 90" version="1.1" xmlns="http://www.w3.org/2000/svg" xmlns:xlink="http://www.w3.org/1999/xlink">
    <title>Group 3</title>
    <g id="Page-1" stroke="none" stroke-width="1" fill="none" fill-rule="evenodd">
        <g id="Desktop-01" transform="translate(-1200.000000, -672.000000)">
            <g id="Group-3" transform="translate(1200.000000, 672.000000)">
                <rect id="Rectangle" fill="#FFFFFF" x="0" y="0" width="90" height="90" rx="18"></rect>
                <g id="iconfinder_4202014_finder_apple_logo_social_social-media_icon" transform="translate(9.000000, 9.000000)" fill-rule="nonzero">
                    <path d="M72,11.2541157 L72,60.7692144 C72,62.0291877 71.0097778,63.0200375 69.7500849,63.0200375 L40.8145649,63.0200375 C39.9596816,55.0072938 40.7246407,42.5389618 42.7497454,38.2624882 L29.2495002,38.2624882 C29.2495002,28.8544569 33.614746,16.8808725 38.0249538,9.00344306 L69.7500849,9.00344306 C71.0099287,9.00344306 72,9.99399188 72,11.2541157 L72,11.2541157 Z" id="Path" fill="#DCE6EA"></path>
                    <g id="Group">
                        <path d="M40.8145649,63.0200375 L2.24976425,63.0200375 C0.990071291,63.0200375 0,62.0291877 0,60.7692144 L0,11.2541157 C0,9.99399188 0.99022217,9.00329255 2.24976425,9.00329255 L38.0251047,9.00329255 C33.6148968,16.880722 29.2496511,28.8543063 29.2496511,38.2623376 L42.7498963,38.2623376 C40.7246407,42.5388113 39.9596816,55.0071433 40.8145649,63.0200375 L40.8145649,63.0200375 Z" id="Path" fill="#2299F8"></path>
                        <path d="M42.6916568,72 C42.137929,72 41.5881241,71.7928894 41.1566087,71.3601545 C37.3942775,67.5978451 37.5564729,49.3803865 39.6722562,40.5133113 L29.2495002,40.5133113 C28.0077619,40.5133113 26.9998868,39.5050015 26.9998868,38.2624882 C26.9998868,24.6634766 35.4556268,6.36624418 41.1566087,0.658358994 C42.0338222,-0.219452998 43.4609914,-0.219452998 44.3389592,0.658358994 C45.21572,1.53602047 45.21572,2.96276599 44.3389592,3.84057798 C40.0904942,8.0947752 32.4541808,23.6282243 31.5807394,36.0119661 L42.7495945,36.0119661 C43.51908,36.0119661 44.2348523,36.4034594 44.6491674,37.0520348 C45.062879,37.7045236 45.1165921,38.5186672 44.7885801,39.2131501 C42.0303519,45.1133953 42.137929,65.7333977 44.3421277,68.1833541 C45.1620069,69.0878075 45.1445048,70.523283 44.2574843,71.360305 C43.81586,71.7834068 43.2494583,72 42.6916568,72 L42.6916568,72 Z" id="Path" fill="#5E7B89"></path>
                    </g>
                    <path d="M35.9996982,54.0162934 C31.7157765,54.0162934 23.9355242,52.796508 14.9483866,49.3677431 C13.7878215,48.9253752 13.2072372,47.6247625 13.6485597,46.4633775 C14.0892788,45.2982296 15.3897092,44.7088071 16.5554042,45.1623132 C24.9794594,48.3767427 32.2965117,49.5155502 35.9998491,49.5155502 C39.7028847,49.5155502 47.0208423,48.3768932 55.4485187,45.1623132 C56.6013889,44.712269 57.9102686,45.2938646 58.351742,46.4633775 C58.7972892,47.6247625 58.216554,48.9252247 57.0510098,49.3677431 C48.064325,52.796508 40.2840726,54.0162934 35.9996982,54.0162934 L35.9996982,54.0162934 Z" id="Path" fill="#5E7B89"></path>
                    <path d="M20.2498397,27.0089745 C19.007347,27.0089745 17.999321,26.0008153 17.999321,24.7583019 L17.999321,20.2574082 C17.999321,19.0151959 19.007347,18.0068861 20.2498397,18.0068861 C21.4917289,18.0068861 22.4996039,19.0151959 22.4996039,20.2574082 L22.4996039,24.7583019 C22.4996039,26.0006648 21.4918797,27.0089745 20.2498397,27.0089745 L20.2498397,27.0089745 Z" id="Path" fill="#5E7B89"></path>
                    <path d="M47.2495757,27.0089745 C46.0079882,27.0089745 45.000264,26.0008153 45.000264,24.7583019 L45.000264,20.2574082 C45.000264,19.0151959 46.0081391,18.0068861 47.2495757,18.0068861 C48.492521,18.0068861 49.5003961,19.0151959 49.5003961,20.2574082 L49.5003961,24.7583019 C49.5003961,26.0006648 48.492521,27.0089745 47.2495757,27.0089745 L47.2495757,27.0089745 Z" id="Path" fill="#5E7B89"></path>
                </g>
            </g>
        </g>
    </g>
</svg>