<?xml version="1.0" encoding="UTF-8"?>
<svg width="90px" height="90px" viewBox="0 0 90 90" version="1.1" xmlns="http://www.w3.org/2000/svg" xmlns:xlink="http://www.w3.org/1999/xlink">
    <title>Group 2</title>
    <g id="Page-1" stroke="none" stroke-width="1" fill="none" fill-rule="evenodd">
        <g id="Desktop-01" transform="translate(-1087.000000, -672.000000)">
            <g id="Group-2" transform="translate(1087.000000, 672.000000)">
                <rect id="Rectangle" fill="#FFFFFF" x="0" y="0" width="90" height="90" rx="18"></rect>
                <g id="iconfinder_4202101_outlook_logo_microsoft_social_social-media_icon" transform="translate(9.000000, 11.000000)" fill-rule="nonzero">
                    <path d="M69.7497831,14 L38.2496134,14 C37.0078751,14 36,15.0213594 36,16.2785225 C36,17.535381 37.0078751,18.5558264 38.2496134,18.5558264 L63.1933144,18.5558264 L49.3695835,29.4392063 L39.4554423,23.05651 L37.0437844,26.9020308 L48.2932092,34.1449234 C48.6580358,34.3825551 49.080951,34.5001523 49.4996417,34.5001523 C49.9856245,34.5001523 50.4762847,34.3409695 50.8816979,34.0218424 L67.5000189,20.9332097 L67.5000189,50.4446306 L38.2496134,50.4446306 C37.0078751,50.4446306 36,51.465076 36,52.7213252 C36,53.9790976 37.0078751,55 38.2496134,55 L69.7497831,55 C70.9921249,55 72,53.9790976 72,52.7213252 L72,16.2783702 C72,15.0213594 70.9922758,14 69.7497831,14 L69.7497831,14 Z" id="Path" fill="#1B80E4"></path>
                    <path d="M40.1762547,0.524318257 C39.6563161,0.0936853047 38.9593479,-0.0924524162 38.3036204,0.0441193155 L1.85873469,6.8431482 C0.77914419,7.04353425 0,7.97710284 0,9.06937354 L0,58.933365 C0,60.0212399 0.77914419,60.9590527 1.85873469,61.1597419 L38.3036204,67.9589224 C38.4400203,67.9857517 38.5813079,68 38.7227483,68 C39.2510878,68 39.7656804,67.818258 40.1762547,67.477814 C40.7004702,67.0479389 41,66.4041874 41,65.7328486 L41,2.27019307 C41,1.59445857 40.7003174,0.955102787 40.1762547,0.524318257 L40.1762547,0.524318257 Z" id="Path" fill="#2299F8"></path>
                    <path d="M20.4998458,50 C14.1609959,50 9,43.9431729 9,36.4999248 C9,29.057429 14.1611502,23 20.4998458,23 C26.8386956,23 32,29.057429 32,36.4999248 C32,43.9431729 26.8386956,50 20.4998458,50 L20.4998458,50 Z M20.4998458,27.5003762 C16.6957647,27.5003762 13.6002159,31.5365556 13.6002159,36.4999248 C13.6002159,41.4635949 16.6957647,45.4999248 20.4998458,45.4999248 C24.3040811,45.4999248 27.4005552,41.4637453 27.4005552,36.4999248 C27.4005552,31.5367061 24.3040811,27.5003762 20.4998458,27.5003762 L20.4998458,27.5003762 Z" id="Shape" fill="#FCFCFC"></path>
                </g>
            </g>
        </g>
    </g>
</svg>